<?xml version="1.0" encoding="UTF-8"?>
<svg xmlns="http://www.w3.org/2000/svg" version="1.2" baseProfile="tiny-ps" viewBox="0 0 28 28"><title>Fusiey</title><rect width="28" height="28" fill="#ffffff"/><rect x="4" y="1" width="21" height="1" fill="#603060"/><rect x="3" y="2" width="1" height="1" fill="#603060"/><rect x="4" y="2" width="20" height="1" fill="#b0e0d0"/><rect x="24" y="2" width="2" height="1" fill="#603060"/><rect x="2" y="3" width="1" height="1" fill="#603060"/><rect x="3" y="3" width="2" height="2" fill="#b0e0d0"/><rect x="23" y="3" width="2" height="1" fill="#b0e0d0"/><rect x="25" y="3" width="2" height="1" fill="#603060"/><rect x="1" y="4" width="1" height="20" fill="#603060"/><rect x="2" y="4" width="1" height="20" fill="#b0e0d0"/><rect x="24" y="4" width="2" height="1" fill="#d0b0e0"/><rect x="26" y="4" width="1" height="20" fill="#603060"/><rect x="3" y="5" width="1" height="20" fill="#b0e0d0"/><rect x="7" y="5" width="3" height="1" fill="#603060"/><rect x="16" y="5" width="2" height="1" fill="#603060"/><rect x="25" y="5" width="1" height="19" fill="#d0b0e0"/><rect x="6" y="6" width="1" height="5" fill="#603060"/><rect x="7" y="6" width="3" height="1" fill="#ffe0e0"/><rect x="10" y="6" width="1" height="1" fill="#603060"/><rect x="15" y="6" width="1" height="1" fill="#603060"/><rect x="16" y="6" width="2" height="1" fill="#ffe0e0"/><rect x="18" y="6" width="2" height="5" fill="#603060"/><rect x="7" y="7" width="2" height="4" fill="#ffe0e0"/><rect x="9" y="7" width="1" height="5" fill="#ffb0c0"/><rect x="10" y="7" width="1" height="15" fill="#ffe0e0"/><rect x="11" y="7" width="1" height="5" fill="#603060"/><rect x="14" y="7" width="1" height="5" fill="#603060"/><rect x="15" y="7" width="1" height="1" fill="#ffe0e0"/><rect x="16" y="7" width="1" height="5" fill="#ffb0c0"/><rect x="17" y="7" width="1" height="4" fill="#ffe0e0"/><rect x="13" y="8" width="1" height="4" fill="#603060"/><rect x="15" y="8" width="1" height="4" fill="#ffb0c0"/><rect x="7" y="11" width="2" height="2" fill="#603060"/><rect x="12" y="11" width="1" height="1" fill="#603060"/><rect x="17" y="11" width="1" height="2" fill="#603060"/><rect x="20" y="11" width="1" height="3" fill="#ffb0c0"/><rect x="22" y="11" width="1" height="3" fill="#ffb0c0"/><rect x="9" y="12" width="1" height="4" fill="#ffe0e0"/><rect x="11" y="12" width="6" height="4" fill="#ffe0e0"/><rect x="21" y="12" width="1" height="2" fill="#ffb0c0"/><rect x="6" y="13" width="1" height="3" fill="#603060"/><rect x="7" y="13" width="2" height="5" fill="#ffe0e0"/><rect x="17" y="13" width="1" height="5" fill="#ffe0e0"/><rect x="18" y="13" width="2" height="2" fill="#603060"/><rect x="18" y="15" width="1" height="5" fill="#ffe0e0"/><rect x="19" y="15" width="1" height="1" fill="#603060"/><rect x="5" y="16" width="1" height="3" fill="#603060"/><rect x="6" y="16" width="1" height="3" fill="#ffe0e0"/><rect x="9" y="16" width="1" height="2" fill="#603060"/><rect x="11" y="16" width="5" height="1" fill="#ffe0e0"/><rect x="16" y="16" width="1" height="2" fill="#603060"/><rect x="19" y="16" width="1" height="3" fill="#ffe0e0"/><rect x="20" y="16" width="1" height="3" fill="#603060"/><rect x="11" y="17" width="1" height="5" fill="#ffe0e0"/><rect x="12" y="17" width="1" height="1" fill="#ffb0c0"/><rect x="13" y="17" width="3" height="5" fill="#ffe0e0"/><rect x="7" y="18" width="3" height="1" fill="#ffb0c0"/><rect x="12" y="18" width="1" height="4" fill="#ffe0e0"/><rect x="16" y="18" width="2" height="1" fill="#ffb0c0"/><rect x="6" y="19" width="1" height="2" fill="#603060"/><rect x="7" y="19" width="3" height="1" fill="#ffe0e0"/><rect x="16" y="19" width="2" height="2" fill="#ffe0e0"/><rect x="19" y="19" width="1" height="1" fill="#603060"/><rect x="7" y="20" width="1" height="2" fill="#603060"/><rect x="8" y="20" width="2" height="1" fill="#ffe0e0"/><rect x="18" y="20" width="1" height="1" fill="#603060"/><rect x="8" y="21" width="1" height="1" fill="#603060"/><rect x="9" y="21" width="1" height="1" fill="#ffe0e0"/><rect x="16" y="21" width="1" height="1" fill="#ffe0e0"/><rect x="17" y="21" width="1" height="1" fill="#603060"/><rect x="9" y="22" width="8" height="1" fill="#603060"/><rect x="4" y="23" width="1" height="2" fill="#b0e0d0"/><rect x="23" y="23" width="2" height="2" fill="#d0b0e0"/><rect x="2" y="24" width="1" height="1" fill="#603060"/><rect x="5" y="24" width="18" height="1" fill="#d0b0e0"/><rect x="25" y="24" width="1" height="1" fill="#603060"/><rect x="3" y="25" width="22" height="1" fill="#603060"/><rect x="4" y="26" width="20" height="1" fill="#603060"/></svg>